<svg width="479" height="174" viewBox="0 0 479 174" fill="none" xmlns="http://www.w3.org/2000/svg">
<path d="M6.88082 13.05C6.10082 10.866 5.26882 9.20196 4.38482 8.05796C3.50082 6.91396 2.20082 5.69196 0.484816 4.39196L1.42082 3.29996H17.4108L18.1128 5.71796L16.6308 6.10796C15.4868 6.36796 14.6548 6.75796 14.1348 7.27796C13.6148 7.74596 13.3548 8.39596 13.3548 9.22796C13.3548 9.74796 13.4848 10.398 13.7448 11.178C14.0048 11.958 14.1608 12.452 14.2128 12.66L25.6008 48.072L36.1308 15.234L35.5068 13.05C34.8308 10.918 34.0248 9.27996 33.0888 8.13596C32.2048 6.99196 30.8788 5.74396 29.1108 4.39196L30.1248 3.29996H45.9588L46.8168 5.71796L45.1008 6.10796C44.0088 6.31596 43.2028 6.67996 42.6828 7.19996C42.2148 7.66796 41.9808 8.34396 41.9808 9.22796C41.9808 9.85196 42.2408 10.996 42.7608 12.66L54.3048 48.072L64.1328 17.34C65.1208 14.636 65.6148 12.478 65.6148 10.866C65.5108 8.16196 64.4188 6.57596 62.3388 6.10796L60.7788 5.71796L61.5588 3.29996H75.0528L75.9888 4.39196L74.8968 5.71796C73.1288 7.84996 71.8028 10.19 70.9188 12.738L57.3468 54H49.3128L38.9388 23.19L28.6428 54H20.6868L6.88082 13.05Z" fill="white"/>
<path d="M113.692 55.014C113.328 54.65 112.912 54.39 112.444 54.234C112.028 54.078 111.456 54 110.728 54H80.9321L80.0741 51.738L81.6341 51.348C83.3501 50.828 84.4941 50.178 85.0661 49.398C85.6381 48.566 85.9241 47.136 85.9241 45.108V17.418C85.9241 14.61 85.6901 12.348 85.2221 10.632C84.7541 8.91596 83.9481 7.27796 82.8041 5.71796L81.8681 4.39196L82.8041 3.29996H104.41C108.518 3.29996 111.17 2.80596 112.366 1.81796L113.77 0.881958L114.784 1.81796V14.376L112.366 15.234L111.976 13.518C111.352 10.97 110.546 9.27996 109.558 8.44796C108.57 7.61596 106.854 7.19996 104.41 7.19996H97.4681C95.6481 7.19996 94.4261 7.56396 93.8021 8.29196C93.2301 9.01996 92.9441 10.476 92.9441 12.66V26.232H101.914C103.11 26.232 104.124 25.998 104.956 25.53C105.788 25.062 106.646 24.23 107.53 23.034L108.076 22.254L109.48 23.034V35.124L107.14 35.982L106.672 34.188C106.152 32.576 105.372 31.51 104.332 30.99C103.292 30.47 101.472 30.21 98.8721 30.21H92.9441V44.64C92.9441 46.148 93.0481 47.292 93.2561 48.072C93.5161 48.8 93.9581 49.294 94.5821 49.554C95.2061 49.814 96.1681 49.944 97.4681 49.944H105.034C106.75 49.944 108.076 49.788 109.012 49.476C109.948 49.112 110.676 48.488 111.196 47.604C111.768 46.72 112.288 45.42 112.756 43.704L113.224 42.144L115.564 42.846V55.014L114.238 55.716L113.692 55.014Z" fill="white"/>
<path d="M155.093 55.014C154.833 54.65 154.469 54.39 154.001 54.234C153.533 54.078 152.883 54 152.051 54H123.893L123.035 51.738L124.595 51.348C126.311 50.828 127.455 50.178 128.027 49.398C128.599 48.566 128.885 47.136 128.885 45.108V12.66C128.885 10.476 128.573 8.96796 127.949 8.13596C127.377 7.25196 126.207 6.57596 124.439 6.10796L122.723 5.71796L123.581 3.29996H139.103L140.039 4.39196L139.103 5.71796C137.907 7.22596 137.075 8.86396 136.607 10.632C136.139 12.348 135.905 14.61 135.905 17.418V44.64C135.905 46.148 136.009 47.292 136.217 48.072C136.477 48.8 136.919 49.294 137.543 49.554C138.167 49.814 139.129 49.944 140.429 49.944H146.591C149.035 49.944 150.751 49.528 151.739 48.696C152.779 47.864 153.611 46.2 154.235 43.704L154.625 42.144L157.121 42.846V55.014L155.639 55.716L155.093 55.014Z" fill="white"/>
<path d="M183.724 55.014C178.836 55.014 174.702 53.87 171.322 51.582C167.942 49.242 165.394 46.096 163.678 42.144C162.014 38.14 161.182 33.668 161.182 28.728C161.182 23.684 162.014 19.186 163.678 15.234C165.394 11.23 167.942 8.08396 171.322 5.79596C174.754 3.45596 178.966 2.28596 183.958 2.28596C187.026 2.28596 189.756 2.72796 192.148 3.61196C194.54 4.49596 196.412 5.71796 197.764 7.27796C199.116 8.83796 199.792 10.632 199.792 12.66C199.792 15.052 199.09 17.028 197.686 18.588C196.282 20.096 194.514 20.85 192.382 20.85C191.29 20.85 190.744 20.564 190.744 19.992C190.744 19.888 190.952 19.524 191.368 18.9C191.784 18.224 192.148 17.47 192.46 16.638C192.772 15.754 192.928 14.74 192.928 13.596C192.928 11.412 192.096 9.64396 190.432 8.29196C188.82 6.88796 186.662 6.18596 183.958 6.18596C180.474 6.18596 177.614 7.27796 175.378 9.46196C173.194 11.646 171.608 14.454 170.62 17.886C169.632 21.266 169.138 24.88 169.138 28.728C169.138 32.628 169.762 36.216 171.01 39.492C172.258 42.768 174.026 45.368 176.314 47.292C178.654 49.164 181.332 50.1 184.348 50.1C187.364 50.1 189.99 49.554 192.226 48.462C194.514 47.318 196.334 45.758 197.686 43.782C197.842 43.574 197.998 43.47 198.154 43.47C198.622 43.47 199.116 43.704 199.636 44.172C200.156 44.588 200.416 45.03 200.416 45.498C200.416 45.654 200.364 45.836 200.26 46.044C196.1 52.024 190.588 55.014 183.724 55.014Z" fill="white"/>
<path d="M228.075 55.014C222.979 55.014 218.689 53.87 215.205 51.582C211.721 49.242 209.095 46.096 207.327 42.144C205.611 38.192 204.753 33.72 204.753 28.728C204.753 23.736 205.611 19.238 207.327 15.234C209.095 11.23 211.721 8.08396 215.205 5.79596C218.689 3.45596 222.979 2.28596 228.075 2.28596C233.171 2.28596 237.461 3.45596 240.945 5.79596C244.481 8.08396 247.133 11.23 248.901 15.234C250.669 19.238 251.553 23.736 251.553 28.728C251.553 33.72 250.669 38.192 248.901 42.144C247.133 46.096 244.481 49.242 240.945 51.582C237.461 53.87 233.171 55.014 228.075 55.014ZM227.763 50.88C231.091 50.88 233.951 49.918 236.343 47.994C238.787 46.018 240.659 43.366 241.959 40.038C243.259 36.71 243.909 33.018 243.909 28.962C243.909 25.53 243.415 22.098 242.427 18.666C241.439 15.182 239.801 12.244 237.513 9.85196C235.225 7.45996 232.235 6.26396 228.543 6.26396C225.215 6.26396 222.329 7.30396 219.885 9.38396C217.441 11.412 215.569 14.194 214.269 17.73C213.021 21.214 212.397 25.088 212.397 29.352C212.397 35.592 213.723 40.74 216.375 44.796C219.079 48.852 222.875 50.88 227.763 50.88Z" fill="white"/>
<path d="M255.07 51.582L256.63 51.192C258.502 50.62 259.776 49.944 260.452 49.164C261.128 48.332 261.543 46.824 261.699 44.64L263.65 16.638C263.702 16.066 263.754 15.234 263.806 14.142C263.91 12.998 263.962 12.01 263.962 11.178C263.962 9.56596 263.676 8.42196 263.104 7.74596C262.532 7.06996 261.466 6.52396 259.906 6.10796L258.19 5.71796L258.892 3.29996H271.84L286.426 38.868L301.324 3.29996H311.542L312.634 4.39196L311.854 5.71796C310.918 7.01796 310.242 8.34396 309.826 9.69596C309.462 10.996 309.28 12.634 309.28 14.61C309.28 15.39 309.306 16.43 309.358 17.73C309.462 18.978 309.54 20.018 309.592 20.85L310.918 40.272C311.178 43.184 311.672 45.628 312.4 47.604C313.18 49.528 314.35 51.27 315.91 52.83L314.974 54H299.452L298.594 51.582L300.232 51.192C301.74 50.724 302.806 50.126 303.43 49.398C304.054 48.67 304.366 47.578 304.366 46.122L304.288 43.47L302.104 13.908L287.362 49.008H283.539L268.72 13.908L267.16 35.826C266.9 39.83 266.77 42.118 266.77 42.69C266.77 44.614 266.951 46.278 267.315 47.682C267.731 49.034 268.382 50.334 269.266 51.582L270.202 52.83L269.031 54H255.771L255.07 51.582Z" fill="white"/>
<path d="M355.766 55.014C355.402 54.65 354.986 54.39 354.518 54.234C354.102 54.078 353.53 54 352.802 54H323.006L322.148 51.738L323.708 51.348C325.424 50.828 326.568 50.178 327.14 49.398C327.712 48.566 327.998 47.136 327.998 45.108V17.418C327.998 14.61 327.764 12.348 327.296 10.632C326.828 8.91596 326.022 7.27796 324.878 5.71796L323.942 4.39196L324.878 3.29996H346.484C350.592 3.29996 353.244 2.80596 354.44 1.81796L355.844 0.881958L356.858 1.81796V14.376L354.44 15.234L354.05 13.518C353.426 10.97 352.62 9.27996 351.632 8.44796C350.644 7.61596 348.928 7.19996 346.484 7.19996H339.542C337.722 7.19996 336.5 7.56396 335.876 8.29196C335.304 9.01996 335.018 10.476 335.018 12.66V26.232H343.988C345.184 26.232 346.198 25.998 347.03 25.53C347.862 25.062 348.72 24.23 349.604 23.034L350.15 22.254L351.554 23.034V35.124L349.214 35.982L348.746 34.188C348.226 32.576 347.446 31.51 346.406 30.99C345.366 30.47 343.546 30.21 340.946 30.21H335.018V44.64C335.018 46.148 335.122 47.292 335.33 48.072C335.59 48.8 336.032 49.294 336.656 49.554C337.28 49.814 338.242 49.944 339.542 49.944H347.108C348.824 49.944 350.15 49.788 351.086 49.476C352.022 49.112 352.75 48.488 353.27 47.604C353.842 46.72 354.362 45.42 354.83 43.704L355.298 42.144L357.638 42.846V55.014L356.312 55.716L355.766 55.014Z" fill="white"/>
<path d="M399.554 52.83L400.412 51.582C401.608 50.022 402.44 48.41 402.908 46.746C403.376 45.03 403.61 42.716 403.61 39.804V12.66C403.61 10.424 403.454 8.96796 403.142 8.29196C402.83 7.56396 402.154 7.19996 401.114 7.19996H397.916C396.2 7.19996 394.874 7.38196 393.938 7.74596C393.054 8.10996 392.326 8.73396 391.754 9.61796C391.234 10.502 390.74 11.802 390.272 13.518L389.882 15.234L387.464 14.376V1.81796L388.634 0.881958L389.882 1.81796C391.13 2.80596 393.782 3.29996 397.838 3.29996H416.324C420.432 3.29996 423.084 2.80596 424.28 1.81796L425.528 0.881958L426.698 1.81796V14.376L424.28 15.234L423.89 13.518C423.214 10.97 422.382 9.27996 421.394 8.44796C420.406 7.61596 418.69 7.19996 416.246 7.19996H412.97C411.982 7.19996 411.306 7.56396 410.942 8.29196C410.63 9.01996 410.474 10.476 410.474 12.66V44.64C410.474 46.824 410.76 48.332 411.332 49.164C411.956 49.944 413.204 50.62 415.076 51.192L416.792 51.582L415.934 54H400.412L399.554 52.83Z" fill="white"/>
<path d="M453.924 55.014C448.828 55.014 444.538 53.87 441.054 51.582C437.57 49.242 434.944 46.096 433.176 42.144C431.46 38.192 430.602 33.72 430.602 28.728C430.602 23.736 431.46 19.238 433.176 15.234C434.944 11.23 437.57 8.08396 441.054 5.79596C444.538 3.45596 448.828 2.28596 453.924 2.28596C459.02 2.28596 463.31 3.45596 466.794 5.79596C470.33 8.08396 472.982 11.23 474.75 15.234C476.518 19.238 477.402 23.736 477.402 28.728C477.402 33.72 476.518 38.192 474.75 42.144C472.982 46.096 470.33 49.242 466.794 51.582C463.31 53.87 459.02 55.014 453.924 55.014ZM453.612 50.88C456.94 50.88 459.8 49.918 462.192 47.994C464.636 46.018 466.508 43.366 467.808 40.038C469.108 36.71 469.758 33.018 469.758 28.962C469.758 25.53 469.264 22.098 468.276 18.666C467.288 15.182 465.65 12.244 463.362 9.85196C461.074 7.45996 458.084 6.26396 454.392 6.26396C451.064 6.26396 448.178 7.30396 445.734 9.38396C443.29 11.412 441.418 14.194 440.118 17.73C438.87 21.214 438.246 25.088 438.246 29.352C438.246 35.592 439.572 40.74 442.224 44.796C444.928 48.852 448.724 50.88 453.612 50.88Z" fill="white"/>
<path d="M0.366211 150.931L2.54421 150.436C4.85421 149.71 6.37221 148.852 7.09821 147.862C7.82421 146.806 8.18721 144.892 8.18721 142.12V101.53C8.18721 98.758 7.79121 96.844 6.99921 95.788C6.27321 94.666 4.78821 93.808 2.54421 93.214L0.366211 92.719L1.45521 89.65H21.1562L22.3442 91.036L21.1562 92.719C19.6382 94.633 18.5822 96.712 17.9882 98.956C17.3942 101.134 17.0972 104.005 17.0972 107.569V142.714C17.0972 145.288 17.4602 147.103 18.1862 148.159C18.9122 149.149 20.3642 149.974 22.5422 150.634L24.3242 151.129L23.5322 154H1.45521L0.366211 150.931ZM46.8962 155.287C44.1902 155.287 41.9132 154.561 40.0652 153.109C38.2832 151.657 36.6002 149.446 35.0162 146.476L24.2252 127.072C23.6312 125.95 23.0042 125.125 22.3442 124.597C21.7502 124.069 20.8262 123.541 19.5722 123.013C19.3742 122.881 19.2752 122.551 19.2752 122.023C19.2752 120.571 19.8692 119.845 21.0572 119.845H23.1362L35.4122 101.827C36.1382 100.573 36.6002 99.616 36.7982 98.956C37.0622 98.23 37.1942 97.471 37.1942 96.679C37.1942 95.887 36.9962 95.095 36.6002 94.303C36.2702 93.445 36.0722 92.917 36.0062 92.719L35.3132 91.036L36.8972 89.65H53.2322L54.3212 92.719L52.2422 93.214C50.7902 93.544 49.5032 94.072 48.3812 94.798C47.3252 95.458 46.2692 96.547 45.2132 98.065L29.0762 121.429C31.7162 122.617 33.7952 124.531 35.3132 127.171L46.6982 147.664C47.4242 148.72 47.9852 149.446 48.3812 149.842C48.8432 150.172 49.4372 150.337 50.1632 150.337C51.4172 150.337 52.5722 149.908 53.6282 149.05L55.1132 151.723C52.7372 154.099 49.9982 155.287 46.8962 155.287Z" fill="white"/>
<path d="M103.373 155.287C102.911 154.825 102.383 154.495 101.789 154.297C101.261 154.099 100.535 154 99.6106 154H61.7926L60.7036 151.129L62.6836 150.634C64.8616 149.974 66.3136 149.149 67.0396 148.159C67.7656 147.103 68.1286 145.288 68.1286 142.714V107.569C68.1286 104.005 67.8316 101.134 67.2376 98.956C66.6436 96.778 65.6206 94.699 64.1686 92.719L62.9806 91.036L64.1686 89.65H91.5916C96.8056 89.65 100.172 89.023 101.69 87.769L103.472 86.581L104.759 87.769V103.708L101.69 104.797L101.195 102.619C100.403 99.385 99.3796 97.24 98.1256 96.184C96.8716 95.128 94.6936 94.6 91.5916 94.6H82.7806C80.4706 94.6 78.9196 95.062 78.1276 95.986C77.4016 96.91 77.0386 98.758 77.0386 101.53V118.756H88.4236C89.9416 118.756 91.2286 118.459 92.2846 117.865C93.3406 117.271 94.4296 116.215 95.5516 114.697L96.2446 113.707L98.0266 114.697V130.042L95.0566 131.131L94.4626 128.854C93.8026 126.808 92.8126 125.455 91.4926 124.795C90.1726 124.135 87.8626 123.805 84.5626 123.805H77.0386V142.12C77.0386 144.034 77.1706 145.486 77.4346 146.476C77.7646 147.4 78.3256 148.027 79.1176 148.357C79.9096 148.687 81.1306 148.852 82.7806 148.852H92.3836C94.5616 148.852 96.2446 148.654 97.4326 148.258C98.6206 147.796 99.5446 147.004 100.205 145.882C100.931 144.76 101.591 143.11 102.185 140.932L102.779 138.952L105.749 139.843V155.287L104.066 156.178L103.373 155.287Z" fill="white"/>
<path d="M114.835 150.931L117.013 150.436C119.257 149.842 120.742 149.017 121.468 147.961C122.26 146.839 122.656 144.892 122.656 142.12V97.768C122.656 96.976 122.491 96.448 122.161 96.184C121.831 95.854 121.336 95.689 120.676 95.689H115.528L114.439 92.323C117.013 91.333 120.412 90.442 124.636 89.65C128.86 88.792 132.919 88.363 136.813 88.363C145.591 88.363 152.125 90.343 156.415 94.303C160.705 98.263 162.85 103.378 162.85 109.648C162.85 113.542 162.058 117.073 160.474 120.241C158.956 123.409 156.58 125.95 153.346 127.864C150.178 129.712 146.218 130.636 141.466 130.636C139.354 130.636 137.506 130.372 135.922 129.844C134.338 129.25 133.546 128.458 133.546 127.468C133.546 126.874 133.645 126.379 133.843 125.983C134.107 125.521 134.47 125.29 134.932 125.29C135.13 125.29 135.625 125.422 136.417 125.686C137.209 125.884 138.166 125.983 139.288 125.983C143.776 125.983 147.274 124.531 149.782 121.627C152.356 118.723 153.643 114.862 153.643 110.044C153.643 105.16 152.29 101.167 149.584 98.065C146.944 94.897 143.182 93.313 138.298 93.313C133.81 93.313 131.566 94.732 131.566 97.57V135.982C131.566 139.678 131.863 142.615 132.457 144.793C133.051 146.905 134.107 148.951 135.625 150.931L136.813 152.515L135.625 154H115.924L114.835 150.931Z" fill="white"/>
<path d="M156.869 150.931L158.948 150.436C161.39 149.71 163.139 148.852 164.195 147.862C165.251 146.806 166.241 144.892 167.165 142.12L181.223 101.53C181.883 99.418 182.213 97.966 182.213 97.174C182.213 96.052 181.883 95.194 181.223 94.6C180.629 93.94 179.639 93.478 178.253 93.214L176.174 92.719L177.263 89.65H194.489L212.606 141.526C213.596 144.364 214.619 146.476 215.675 147.862C216.797 149.248 218.48 150.799 220.724 152.515L219.536 154H199.241L198.251 150.931L200.429 150.436C201.815 150.106 202.805 149.644 203.399 149.05C204.059 148.39 204.389 147.499 204.389 146.377C204.389 145.717 204.224 144.958 203.894 144.1C203.63 143.176 203.432 142.516 203.3 142.12L199.043 129.547H178.352L176.174 136.081C174.854 140.173 174.194 143.308 174.194 145.486C174.194 147.664 174.623 149.479 175.481 150.931L176.174 152.515L174.491 154H158.057L156.869 150.931ZM180.332 123.904H197.261L188.648 98.758L180.332 123.904Z" fill="white"/>
<path d="M314.008 173.899C310.972 173.899 308.233 172.843 305.791 170.731C303.415 168.685 301.27 165.484 299.356 161.128L295.792 153.604C292.492 154.726 288.862 155.287 284.902 155.287C278.83 155.287 273.55 153.934 269.062 151.228C264.64 148.522 261.241 144.661 258.865 139.645C256.489 134.629 255.301 128.722 255.301 121.924C255.301 115.06 256.489 109.12 258.865 104.104C261.307 99.022 264.739 95.128 269.161 92.422C273.649 89.716 278.896 88.363 284.902 88.363C290.974 88.363 296.254 89.749 300.742 92.521C305.23 95.227 308.662 99.121 311.038 104.203C313.48 109.219 314.701 115.126 314.701 121.924C314.701 128.062 313.645 133.54 311.533 138.358C309.487 143.11 306.55 146.938 302.722 149.842L307.276 159.841C308.266 162.217 309.52 163.966 311.038 165.088C312.556 166.21 314.404 166.771 316.582 166.771C317.836 166.771 318.925 166.573 319.849 166.177C320.839 165.781 321.4 165.583 321.532 165.583C321.73 165.583 321.928 165.649 322.126 165.781C322.324 165.979 322.423 166.21 322.423 166.474C322.423 168.586 321.598 170.335 319.948 171.721C318.364 173.173 316.384 173.899 314.008 173.899ZM298.96 142.714C300.874 140.14 302.359 137.104 303.415 133.606C304.471 130.042 304.999 126.247 304.999 122.221C304.999 116.677 304.174 111.727 302.524 107.371C300.874 102.949 298.564 99.517 295.594 97.075C292.624 94.633 289.258 93.412 285.496 93.412C281.47 93.412 277.906 94.666 274.804 97.174C271.702 99.616 269.293 103.048 267.577 107.47C265.861 111.892 265.003 116.974 265.003 122.716C265.003 131.23 266.785 137.863 270.349 142.615C270.217 142.351 270.151 141.757 270.151 140.833C270.151 137.929 271.141 135.619 273.121 133.903C275.167 132.187 277.939 131.329 281.437 131.329C284.737 131.329 287.872 132.319 290.842 134.299C293.878 136.213 296.584 139.018 298.96 142.714ZM284.506 150.04C287.608 150.04 290.479 149.281 293.119 147.763C291.403 144.199 289.357 141.427 286.981 139.447C284.605 137.401 282.229 136.378 279.853 136.378C278.137 136.378 276.751 136.906 275.695 137.962C274.639 139.018 274.111 140.404 274.111 142.12C274.111 144.496 275.068 146.41 276.982 147.862C278.896 149.314 281.404 150.04 284.506 150.04Z" fill="white"/>
<path d="M319.165 150.931L321.145 150.436C323.521 149.71 325.138 148.852 325.996 147.862C326.854 146.806 327.382 144.892 327.58 142.12L330.055 106.579C330.121 105.853 330.187 104.797 330.253 103.411C330.385 101.959 330.451 100.705 330.451 99.649C330.451 97.603 330.088 96.151 329.362 95.293C328.636 94.435 327.283 93.742 325.303 93.214L323.125 92.719L324.016 89.65H340.45L358.963 134.794L377.872 89.65H390.841L392.227 91.036L391.237 92.719C390.049 94.369 389.191 96.052 388.663 97.768C388.201 99.418 387.97 101.497 387.97 104.005C387.97 104.995 388.003 106.315 388.069 107.965C388.201 109.549 388.3 110.869 388.366 111.925L390.049 136.576C390.379 140.272 391.006 143.374 391.93 145.882C392.92 148.324 394.405 150.535 396.385 152.515L395.197 154H375.496L374.407 150.931L376.486 150.436C378.4 149.842 379.753 149.083 380.545 148.159C381.337 147.235 381.733 145.849 381.733 144.001L381.634 140.635L378.862 103.114L360.151 147.664H355.3L336.49 103.114L334.51 130.933C334.18 136.015 334.015 138.919 334.015 139.645C334.015 142.087 334.246 144.199 334.708 145.981C335.236 147.697 336.061 149.347 337.183 150.931L338.371 152.515L336.886 154H320.056L319.165 150.931Z" fill="white"/>
<path d="M403.907 150.931L406.085 150.436C408.395 149.71 409.913 148.852 410.639 147.862C411.365 146.806 411.728 144.892 411.728 142.12V101.53C411.728 98.758 411.332 96.844 410.54 95.788C409.814 94.666 408.329 93.808 406.085 93.214L403.907 92.719L404.996 89.65H424.697L425.885 91.036L424.697 92.719C423.179 94.633 422.123 96.712 421.529 98.956C420.935 101.134 420.638 104.005 420.638 107.569V142.714C420.638 145.288 421.001 147.103 421.727 148.159C422.453 149.149 423.905 149.974 426.083 150.634L427.865 151.129L427.073 154H404.996L403.907 150.931Z" fill="white"/>
<path d="M458.192 155.287C453.902 155.287 450.041 154.693 446.609 153.505C443.243 152.251 440.603 150.535 438.689 148.357C436.841 146.113 435.917 143.605 435.917 140.833C435.917 137.797 436.874 135.289 438.788 133.309C440.768 131.329 443.243 130.339 446.213 130.339C446.807 130.339 447.269 130.438 447.599 130.636C447.929 130.834 448.094 131.065 448.094 131.329C448.094 131.527 447.797 132.055 447.203 132.913C446.675 133.771 446.213 134.728 445.817 135.784C445.421 136.84 445.223 138.094 445.223 139.546C445.223 142.714 446.411 145.288 448.787 147.268C451.163 149.248 454.298 150.238 458.192 150.238C461.624 150.238 464.396 149.347 466.508 147.565C468.62 145.717 469.676 143.209 469.676 140.041C469.676 137.467 469.016 135.289 467.696 133.507C466.376 131.725 464.726 130.273 462.746 129.151C460.832 127.963 458.225 126.643 454.925 125.191C451.163 123.541 448.094 121.99 445.718 120.538C443.408 119.086 441.428 117.172 439.778 114.796C438.194 112.42 437.402 109.417 437.402 105.787C437.402 102.751 438.128 99.913 439.58 97.273C441.098 94.567 443.342 92.422 446.312 90.838C449.283 89.188 452.879 88.363 457.103 88.363C460.931 88.363 464.363 88.924 467.399 90.046C470.435 91.168 472.811 92.719 474.527 94.699C476.243 96.679 477.102 98.956 477.102 101.53C477.102 104.566 476.177 107.074 474.329 109.054C472.547 110.968 470.27 111.925 467.498 111.925C466.31 111.925 465.716 111.562 465.716 110.836C465.716 110.704 465.947 110.242 466.409 109.45C466.937 108.592 467.399 107.635 467.795 106.579C468.191 105.457 468.389 104.17 468.389 102.718C468.389 100.012 467.333 97.768 465.221 95.986C463.109 94.204 460.403 93.313 457.103 93.313C453.539 93.313 450.8 94.336 448.886 96.382C446.972 98.362 446.015 100.804 446.015 103.708C446.015 105.952 446.642 107.866 447.896 109.45C449.15 111.034 450.701 112.387 452.549 113.509C454.398 114.565 456.971 115.819 460.271 117.271C464.231 119.053 467.432 120.703 469.874 122.221C472.382 123.739 474.494 125.785 476.21 128.359C477.926 130.867 478.784 134.002 478.784 137.764C478.784 143.11 476.969 147.367 473.339 150.535C469.775 153.703 464.726 155.287 458.192 155.287Z" fill="white"/>
</svg>
